<svg width="206" height="38" viewBox="0 0 206 38" fill="none" xmlns="http://www.w3.org/2000/svg">
<path d="M36.5811 3.69531H40.0498V21.4907C40.0498 23.466 39.6102 25.11 38.731 26.4229C37.8517 27.7357 36.6834 28.7233 35.2261 29.3857C33.7808 30.0361 32.209 30.3613 30.5107 30.3613C28.7282 30.3613 27.1143 30.0361 25.6689 29.3857C24.2357 28.7233 23.0975 27.7357 22.2544 26.4229C21.4233 25.11 21.0078 23.466 21.0078 21.4907V3.69531H24.4585V21.4907C24.4585 22.8638 24.7114 23.9959 25.2173 24.8872C25.7231 25.7785 26.4277 26.4409 27.3311 26.8745C28.2464 27.3081 29.3063 27.5249 30.5107 27.5249C31.7272 27.5249 32.7871 27.3081 33.6904 26.8745C34.6058 26.4409 35.3164 25.7785 35.8223 24.8872C36.3281 23.9959 36.5811 22.8638 36.5811 21.4907V3.69531ZM57.6826 10.4521H60.7178V29.5845C60.7178 31.3068 60.3685 32.7762 59.6699 33.9927C58.9714 35.2091 57.9958 36.1305 56.7432 36.7568C55.5026 37.3952 54.0693 37.7144 52.4434 37.7144C51.7689 37.7144 50.974 37.606 50.0586 37.3892C49.1553 37.1844 48.264 36.8291 47.3848 36.3232C46.5176 35.8294 45.7889 35.161 45.1987 34.3179L46.9512 32.3306C47.7702 33.3182 48.6253 34.0047 49.5166 34.3901C50.4199 34.7756 51.3112 34.9683 52.1904 34.9683C53.2503 34.9683 54.1657 34.7695 54.9365 34.3721C55.7074 33.9746 56.3035 33.3844 56.7251 32.6016C57.1587 31.8307 57.3755 30.8792 57.3755 29.7471V14.752L57.6826 10.4521ZM44.2231 20.4429V20.0635C44.2231 18.57 44.3978 17.215 44.7471 15.9985C45.1084 14.77 45.6203 13.7161 46.2827 12.8369C46.9572 11.9577 47.7702 11.2832 48.7217 10.8135C49.6732 10.3317 50.7451 10.0908 51.9375 10.0908C53.166 10.0908 54.238 10.3076 55.1533 10.7412C56.0807 11.1628 56.8636 11.783 57.502 12.6021C58.1523 13.409 58.6642 14.3846 59.0376 15.5288C59.411 16.673 59.6699 17.9678 59.8145 19.4131V21.0752C59.682 22.5085 59.423 23.7972 59.0376 24.9414C58.6642 26.0856 58.1523 27.0612 57.502 27.8682C56.8636 28.6751 56.0807 29.2954 55.1533 29.729C54.2259 30.1506 53.1419 30.3613 51.9014 30.3613C50.7331 30.3613 49.6732 30.1144 48.7217 29.6206C47.7822 29.1268 46.9753 28.4342 46.3008 27.543C45.6263 26.6517 45.1084 25.6038 44.7471 24.3994C44.3978 23.1829 44.2231 21.8641 44.2231 20.4429ZM47.5654 20.0635V20.4429C47.5654 21.4185 47.6618 22.3338 47.8545 23.189C48.0592 24.0441 48.3664 24.7969 48.7759 25.4473C49.1974 26.0977 49.7334 26.6095 50.3838 26.9829C51.0342 27.3442 51.811 27.5249 52.7144 27.5249C53.8224 27.5249 54.7378 27.29 55.4604 26.8203C56.1831 26.3506 56.7552 25.7303 57.1768 24.9595C57.6104 24.1886 57.9476 23.3516 58.1885 22.4482V18.0942C58.056 17.4318 57.8512 16.7935 57.5742 16.1792C57.3092 15.5529 56.96 14.9989 56.5264 14.5171C56.1048 14.0233 55.5809 13.6318 54.9546 13.3428C54.3283 13.0537 53.5936 12.9092 52.7505 12.9092C51.8351 12.9092 51.0462 13.1019 50.3838 13.4873C49.7334 13.8607 49.1974 14.3786 48.7759 15.041C48.3664 15.6914 48.0592 16.4502 47.8545 17.3174C47.6618 18.1725 47.5654 19.0879 47.5654 20.0635ZM69.1187 14.3364V30H65.7583V10.4521H68.938L69.1187 14.3364ZM68.4321 19.4854L66.8784 19.4312C66.8905 18.0942 67.0651 16.8597 67.4023 15.7275C67.7396 14.5833 68.2394 13.5897 68.9019 12.7466C69.5643 11.9035 70.3893 11.2531 71.377 10.7954C72.3646 10.3257 73.5088 10.0908 74.8096 10.0908C75.7249 10.0908 76.568 10.2233 77.3389 10.4883C78.1097 10.7412 78.7782 11.1447 79.3442 11.6987C79.9103 12.2528 80.3499 12.9634 80.6631 13.8306C80.9762 14.6978 81.1328 15.7456 81.1328 16.9741V30H77.7905V17.1367C77.7905 16.113 77.6159 15.2939 77.2666 14.6797C76.9294 14.0654 76.4476 13.6198 75.8213 13.3428C75.195 13.0537 74.4603 12.9092 73.6172 12.9092C72.6296 12.9092 71.8045 13.0838 71.1421 13.4331C70.4797 13.7824 69.9497 14.2642 69.5522 14.8784C69.1548 15.4927 68.8657 16.1973 68.6851 16.9922C68.5164 17.7751 68.4321 18.6061 68.4321 19.4854ZM81.0967 17.6426L78.8564 18.3291C78.8685 17.2572 79.0431 16.2274 79.3804 15.2397C79.7297 14.2521 80.2295 13.3729 80.8799 12.6021C81.5423 11.8312 82.3553 11.223 83.3188 10.7773C84.2824 10.3197 85.3844 10.0908 86.625 10.0908C87.6729 10.0908 88.6003 10.2293 89.4072 10.5063C90.2262 10.7834 90.9128 11.2109 91.4668 11.7891C92.0329 12.3551 92.4604 13.0838 92.7495 13.9751C93.0386 14.8664 93.1831 15.9263 93.1831 17.1548V30H89.8228V17.1187C89.8228 16.0226 89.6481 15.1735 89.2988 14.5713C88.9616 13.957 88.4798 13.5295 87.8535 13.2886C87.2393 13.0356 86.5046 12.9092 85.6494 12.9092C84.9147 12.9092 84.2643 13.0356 83.6982 13.2886C83.1322 13.5415 82.6564 13.8908 82.271 14.3364C81.8856 14.77 81.5905 15.2699 81.3857 15.8359C81.193 16.402 81.0967 17.0042 81.0967 17.6426ZM97.3564 20.4429V20.0273C97.3564 18.6182 97.5612 17.3114 97.9707 16.1069C98.3802 14.8905 98.9704 13.8366 99.7412 12.9453C100.512 12.042 101.445 11.3434 102.542 10.8496C103.638 10.3438 104.866 10.0908 106.227 10.0908C107.6 10.0908 108.835 10.3438 109.931 10.8496C111.039 11.3434 111.978 12.042 112.749 12.9453C113.532 13.8366 114.128 14.8905 114.538 16.1069C114.947 17.3114 115.152 18.6182 115.152 20.0273V20.4429C115.152 21.8521 114.947 23.1589 114.538 24.3633C114.128 25.5677 113.532 26.6216 112.749 27.5249C111.978 28.4162 111.045 29.1147 109.949 29.6206C108.865 30.1144 107.636 30.3613 106.263 30.3613C104.89 30.3613 103.656 30.1144 102.56 29.6206C101.464 29.1147 100.524 28.4162 99.7412 27.5249C98.9704 26.6216 98.3802 25.5677 97.9707 24.3633C97.5612 23.1589 97.3564 21.8521 97.3564 20.4429ZM100.699 20.0273V20.4429C100.699 21.4185 100.813 22.3398 101.042 23.207C101.271 24.0622 101.614 24.821 102.072 25.4834C102.542 26.1458 103.126 26.6698 103.824 27.0552C104.523 27.4285 105.336 27.6152 106.263 27.6152C107.179 27.6152 107.979 27.4285 108.666 27.0552C109.365 26.6698 109.943 26.1458 110.4 25.4834C110.858 24.821 111.201 24.0622 111.43 23.207C111.671 22.3398 111.792 21.4185 111.792 20.4429V20.0273C111.792 19.0638 111.671 18.1545 111.43 17.2993C111.201 16.4321 110.852 15.6673 110.382 15.0049C109.925 14.3304 109.347 13.8005 108.648 13.415C107.961 13.0296 107.154 12.8369 106.227 12.8369C105.312 12.8369 104.505 13.0296 103.806 13.415C103.12 13.8005 102.542 14.3304 102.072 15.0049C101.614 15.6673 101.271 16.4321 101.042 17.2993C100.813 18.1545 100.699 19.0638 100.699 20.0273ZM122.686 14.6255V30H119.343V10.4521H122.505L122.686 14.6255ZM121.891 19.4854L120.5 19.4312C120.512 18.0942 120.71 16.8597 121.096 15.7275C121.481 14.5833 122.023 13.5897 122.722 12.7466C123.42 11.9035 124.251 11.2531 125.215 10.7954C126.19 10.3257 127.268 10.0908 128.449 10.0908C129.412 10.0908 130.279 10.2233 131.05 10.4883C131.821 10.7412 132.478 11.1507 133.02 11.7168C133.574 12.2829 133.995 13.0176 134.284 13.9209C134.573 14.8122 134.718 15.9022 134.718 17.1909V30H131.357V17.1548C131.357 16.131 131.207 15.312 130.906 14.6978C130.605 14.0715 130.165 13.6198 129.587 13.3428C129.009 13.0537 128.298 12.9092 127.455 12.9092C126.624 12.9092 125.865 13.0838 125.179 13.4331C124.504 13.7824 123.92 14.2642 123.426 14.8784C122.944 15.4927 122.565 16.1973 122.288 16.9922C122.023 17.7751 121.891 18.6061 121.891 19.4854ZM143.155 2.25V30H139.794V2.25H143.155ZM155.097 10.4521L146.569 19.5757L141.8 24.5259L141.529 20.9668L144.943 16.8838L151.014 10.4521H155.097ZM152.043 30L145.07 20.6777L146.804 17.6968L155.982 30H152.043Z" fill="#1A1A1A" fill-opacity="0.71"/>
<g clip-path="url(#clip0_12502_2)">
<path d="M198.993 6.37323H197.662C197.481 6.37323 197.33 6.52284 197.33 6.70236V15.4394V15.4693C197.33 17.2945 195.848 18.7606 194.004 18.7606C192.159 18.7606 190.678 17.2945 190.678 15.4693V15.4394V6.70236C190.678 6.52284 190.527 6.37323 190.345 6.37323H189.015C188.833 6.37323 188.682 6.52284 188.682 6.70236V15.4693C188.682 18.3417 191.01 20.6756 193.913 20.7354H194.034H194.155C197.027 20.6756 199.386 18.3417 199.386 15.4693V6.70236C199.356 6.52284 199.204 6.37323 198.993 6.37323Z" fill="black"/>
<path d="M205.463 0.119686H182.574C182.333 0.119686 182.151 0.299214 182.151 0.538584V18.1323V20.1969V37.5811C182.151 37.8205 182.333 38 182.574 38H205.463C205.705 38 205.887 37.8205 205.887 37.5811V20.1969V18.1323V0.538584C205.887 0.299214 205.705 0.119686 205.463 0.119686ZM184.086 2.45354V2.2441C184.086 2.12441 184.177 2.00473 184.328 2.00473H184.54H203.558H203.77C203.891 2.00473 204.012 2.09449 204.012 2.2441V2.45354V19.389L194.367 28.9339L194.215 29.0835C194.125 29.1732 193.974 29.1732 193.883 29.0835L193.732 28.9339L184.086 19.389V2.45354ZM203.951 35.6661V35.8756C203.951 35.9953 203.861 36.115 203.71 36.115H203.498H184.51H184.298C184.177 36.115 184.056 36.0252 184.056 35.8756V35.6661V22.0819L193.701 31.6268C193.853 31.7764 194.125 31.7764 194.306 31.6268L203.951 22.0819V35.6661Z" fill="black"/>
</g>
<defs>
<clipPath id="clip0_12502_2">
<rect width="24" height="38" fill="white" transform="translate(182)"/>
</clipPath>
</defs>
</svg>
